<svg width="256" height="256" viewBox="0 0 256 256" fill="none" xmlns="http://www.w3.org/2000/svg">
<rect x="0" y="0" width="100%" height="100%" fill="none" />
<path d="M253 251H3V221H253V251ZM253 35H3V5H253V35Z" fill="#000000"/>
<path d="M47.3548 166V108.25H28V89H66.7097V166H47.3548ZM92.5161 166V133.917C92.5161 130.281 93.7527 127.233 96.2258 124.773C98.6989 122.313 101.763 121.083 105.419 121.083H131.226V108.25H92.5161V89H137.677C141.333 89 144.398 90.2299 146.871 92.6896C149.344 95.1493 150.581 98.1972 150.581 101.833V121.083C150.581 124.719 149.344 127.767 146.871 130.227C144.398 132.687 141.333 133.917 137.677 133.917H111.871V146.75H150.581V166H92.5161ZM169.935 166V146.75H208.645V133.917H182.839V121.083H208.645V108.25H169.935V89H215.097C218.753 89 221.817 90.2299 224.29 92.6896C226.763 95.1493 228 98.1972 228 101.833V153.167C228 156.803 226.763 159.851 224.29 162.31C221.817 164.77 218.753 166 215.097 166H169.935Z" fill="#000000"/>
</svg>
